<svg width="30" height="30" viewBox="0 0 30 30" fill="none" xmlns="http://www.w3.org/2000/svg">
<mask id="mask0_19_56" style="mask-type:alpha" maskUnits="userSpaceOnUse" x="0" y="0" width="30" height="30">
<rect width="30" height="30" fill="#D9D9D9"/>
</mask>
<g mask="url(#mask0_19_56)">
<path d="M5.16669 26.25C4.4028 26.25 3.74864 26.0054 3.20419 25.5163C2.66068 25.0263 2.38892 24.4375 2.38892 23.75V6.25C2.38892 5.5625 2.66068 4.97375 3.20419 4.48375C3.74864 3.99458 4.4028 3.75 5.16669 3.75H24.6111C25.375 3.75 26.0292 3.99458 26.5736 4.48375C27.1172 4.97375 27.3889 5.5625 27.3889 6.25V23.75C27.3889 24.4375 27.1172 25.0263 26.5736 25.5163C26.0292 26.0054 25.375 26.25 24.6111 26.25H5.16669ZM5.16669 23.75H24.6111V6.25H5.16669V23.75Z" fill="#8B8B8B"/>
</g>
</svg>
