<svg width="30" height="30" viewBox="0 0 30 30" fill="none" xmlns="http://www.w3.org/2000/svg">
<mask id="mask0_19_23" style="mask-type:alpha" maskUnits="userSpaceOnUse" x="0" y="0" width="30" height="30">
<rect width="30" height="30" fill="#D9D9D9"/>
</mask>
<g mask="url(#mask0_19_23)">
<path d="M14.1111 27.5C12.2129 27.5 10.4189 27.1717 8.72911 26.515C7.0393 25.8592 5.56384 24.9633 4.30272 23.8275C3.04069 22.6925 2.04532 21.3646 1.31661 19.8438C0.586983 18.3229 0.222168 16.7083 0.222168 15C0.222168 13.2708 0.586983 11.6512 1.31661 10.1412C2.04532 8.63042 3.04069 7.3075 4.30272 6.1725C5.56384 5.03667 7.0393 4.14042 8.72911 3.48375C10.4189 2.82792 12.2129 2.5 14.1111 2.5C16.0324 2.5 17.8319 2.82792 19.5097 3.48375C21.1884 4.14042 22.6583 5.03667 23.9194 6.1725C25.1814 7.3075 26.1768 8.63042 26.9055 10.1412C27.6351 11.6512 27.9999 13.2708 27.9999 15V16.8125C27.9999 18.0417 27.5314 19.0883 26.5944 19.9525C25.6564 20.8175 24.5046 21.25 23.1388 21.25C22.3055 21.25 21.53 21.0833 20.8124 20.75C20.0949 20.4167 19.5046 19.9792 19.0416 19.4375C18.4166 20 17.6819 20.4429 16.8374 20.7663C15.9921 21.0888 15.0833 21.25 14.1111 21.25C12.1898 21.25 10.5523 20.6404 9.19856 19.4212C7.84393 18.2029 7.16661 16.7292 7.16661 15C7.16661 13.2708 7.84393 11.7967 9.19856 10.5775C10.5523 9.35917 12.1898 8.75 14.1111 8.75C16.0324 8.75 17.6703 9.35917 19.0249 10.5775C20.3787 11.7967 21.0555 13.2708 21.0555 15V16.8125C21.0555 17.4167 21.2638 17.8904 21.6805 18.2337C22.0972 18.5779 22.5833 18.75 23.1388 18.75C23.6944 18.75 24.1805 18.5779 24.5972 18.2337C25.0138 17.8904 25.2222 17.4167 25.2222 16.8125V15C25.2222 12.2708 24.1282 9.92167 21.9402 7.9525C19.7532 5.98417 17.1435 5 14.1111 5C11.0786 5 8.46846 5.98417 6.2805 7.9525C4.09346 9.92167 2.99995 12.2708 2.99995 15C2.99995 17.7292 4.09346 20.0779 6.2805 22.0462C8.46846 24.0154 11.0786 25 14.1111 25H21.0555V27.5H14.1111ZM14.1111 18.75C15.2685 18.75 16.2523 18.3854 17.0624 17.6562C17.8726 16.9271 18.2777 16.0417 18.2777 15C18.2777 13.9583 17.8726 13.0729 17.0624 12.3438C16.2523 11.6146 15.2685 11.25 14.1111 11.25C12.9537 11.25 11.9699 11.6146 11.1597 12.3438C10.3495 13.0729 9.94439 13.9583 9.94439 15C9.94439 16.0417 10.3495 16.9271 11.1597 17.6562C11.9699 18.3854 12.9537 18.75 14.1111 18.75Z" fill="#8B8B8B"/>
</g>
</svg>
