<svg width="30" height="30" viewBox="0 0 30 30" fill="none" xmlns="http://www.w3.org/2000/svg">
<mask id="mask0_19_17" style="mask-type:alpha" maskUnits="userSpaceOnUse" x="0" y="0" width="30" height="30">
<rect width="30" height="30" fill="#D9D9D9"/>
</mask>
<g mask="url(#mask0_19_17)">
<path d="M15.1111 15C13.5833 15 12.2755 14.5104 11.1875 13.5312C10.0995 12.5521 9.55556 11.375 9.55556 10C9.55556 8.625 10.0995 7.44792 11.1875 6.46875C12.2755 5.48958 13.5833 5 15.1111 5C16.6389 5 17.9468 5.48958 19.0347 6.46875C20.1227 7.44792 20.6667 8.625 20.6667 10C20.6667 11.375 20.1227 12.5521 19.0347 13.5312C17.9468 14.5104 16.6389 15 15.1111 15ZM4 25V21.5C4 20.7917 4.20278 20.1404 4.60833 19.5463C5.01296 18.9529 5.55093 18.5 6.22222 18.1875C7.65741 17.5417 9.11574 17.0571 10.5972 16.7338C12.0787 16.4113 13.5833 16.25 15.1111 16.25C16.6389 16.25 18.1435 16.4113 19.625 16.7338C21.1065 17.0571 22.5648 17.5417 24 18.1875C24.6713 18.5 25.2093 18.9529 25.6139 19.5463C26.0194 20.1404 26.2222 20.7917 26.2222 21.5V25H4ZM6.77778 22.5H23.4444V21.5C23.4444 21.2708 23.381 21.0625 23.2542 20.875C23.1264 20.6875 22.9583 20.5417 22.75 20.4375C21.5 19.875 20.2384 19.4529 18.9653 19.1712C17.6921 18.8904 16.4074 18.75 15.1111 18.75C13.8148 18.75 12.5301 18.8904 11.2569 19.1712C9.9838 19.4529 8.72222 19.875 7.47222 20.4375C7.26389 20.5417 7.0963 20.6875 6.96944 20.875C6.84167 21.0625 6.77778 21.2708 6.77778 21.5V22.5ZM15.1111 12.5C15.875 12.5 16.5292 12.255 17.0736 11.765C17.6171 11.2758 17.8889 10.6875 17.8889 10C17.8889 9.3125 17.6171 8.72417 17.0736 8.235C16.5292 7.745 15.875 7.5 15.1111 7.5C14.3472 7.5 13.6935 7.745 13.15 8.235C12.6056 8.72417 12.3333 9.3125 12.3333 10C12.3333 10.6875 12.6056 11.2758 13.15 11.765C13.6935 12.255 14.3472 12.5 15.1111 12.5Z" fill="#8B8B8B"/>
</g>
</svg>
