<?xml version="1.0" encoding="utf-8"?>
<!-- Generator: Adobe Illustrator 23.0.1, SVG Export Plug-In . SVG Version: 6.00 Build 0)  -->
<svg version="1.1" id="Layer_1" xmlns="http://www.w3.org/2000/svg" xmlns:xlink="http://www.w3.org/1999/xlink" x="0px" y="0px"
	 viewBox="0 0 30 30" style="enable-background:new 0 0 30 30;" xml:space="preserve">
<style type="text/css">
	.st0{fill:#D9D9D9;filter:url(#Adobe_OpacityMaskFilter);}
	.st1{mask:url(#mask0_2_48_1_);}
	.st2{fill:#FFFFFF;}
</style>
<defs>
	<filter id="Adobe_OpacityMaskFilter" filterUnits="userSpaceOnUse" x="2.5" y="5" width="25" height="22.5">
		<feColorMatrix  type="matrix" values="1 0 0 0 0  0 1 0 0 0  0 0 1 0 0  0 0 0 1 0"/>
	</filter>
</defs>
<mask maskUnits="userSpaceOnUse" x="2.5" y="5" width="25" height="22.5" id="mask0_2_48_1_">
	<rect class="st0" width="30" height="30"/>
</mask>
<g class="st1">
	<path class="st2" d="M5,10h20V7.5H5V10z M2.5,7.5c0-0.7,0.2-1.3,0.7-1.8C3.7,5.2,4.3,5,5,5h20c0.7,0,1.3,0.2,1.8,0.7
		c0.5,0.5,0.7,1.1,0.7,1.8V15H5v7.5h5.1V25H5c-0.7,0-1.3-0.2-1.8-0.7c-0.5-0.5-0.7-1.1-0.7-1.8V7.5z M18.7,27.5l-5.3-5.3l1.8-1.8
		l3.6,3.5l7.1-7.1l1.8,1.8L18.7,27.5z M5,7.5v15v-5.6v3.5V7.5z"/>
</g>
</svg>
