<?xml version="1.0" encoding="utf-8"?>
<!-- Generator: Adobe Illustrator 23.0.1, SVG Export Plug-In . SVG Version: 6.00 Build 0)  -->
<svg version="1.1" id="Layer_1" xmlns="http://www.w3.org/2000/svg" xmlns:xlink="http://www.w3.org/1999/xlink" x="0px" y="0px"
	 viewBox="0 0 30 30" style="enable-background:new 0 0 30 30;" xml:space="preserve">
<style type="text/css">
	.st0{fill:#D9D9D9;filter:url(#Adobe_OpacityMaskFilter);}
	.st1{mask:url(#mask0_4_60_1_);}
	.st2{fill:#FFFFFF;}
</style>
<defs>
	<filter id="Adobe_OpacityMaskFilter" filterUnits="userSpaceOnUse" x="3.8" y="3.8" width="23.8" height="22.5">
		<feColorMatrix  type="matrix" values="1 0 0 0 0  0 1 0 0 0  0 0 1 0 0  0 0 0 1 0"/>
	</filter>
</defs>
<mask maskUnits="userSpaceOnUse" x="3.8" y="3.8" width="23.8" height="22.5" id="mask0_4_60_1_">
	<rect class="st0" width="30" height="30"/>
</mask>
<g class="st1">
	<path class="st2" d="M20,16.9c0.5,0,1-0.2,1.3-0.5c0.4-0.4,0.5-0.8,0.5-1.3s-0.2-1-0.5-1.3c-0.4-0.4-0.8-0.5-1.3-0.5
		s-1,0.2-1.3,0.5c-0.4,0.4-0.5,0.8-0.5,1.3s0.2,1,0.5,1.3C19,16.7,19.5,16.9,20,16.9z M6.3,26.3c-0.7,0-1.3-0.2-1.8-0.7
		C4,25,3.8,24.4,3.8,23.8V6.3C3.8,5.6,4,5,4.5,4.5C5,4,5.6,3.8,6.3,3.8h17.5c0.7,0,1.3,0.2,1.8,0.7C26,5,26.3,5.6,26.3,6.3v3.1h-2.5
		V6.3H6.3v17.5h17.5v-3.1h2.5v3.1c0,0.7-0.2,1.3-0.7,1.8c-0.5,0.5-1.1,0.7-1.8,0.7H6.3z M16.3,21.3c-0.7,0-1.3-0.2-1.8-0.7
		c-0.5-0.5-0.7-1.1-0.7-1.8v-7.5c0-0.7,0.2-1.3,0.7-1.8C15,9,15.6,8.8,16.3,8.8H25c0.7,0,1.3,0.2,1.8,0.7c0.5,0.5,0.7,1.1,0.7,1.8
		v7.5c0,0.7-0.2,1.3-0.7,1.8c-0.5,0.5-1.1,0.7-1.8,0.7H16.3z M25,18.8v-7.5h-8.8v7.5H25z"/>
</g>
</svg>
