<svg width="26" height="26" viewBox="0 0 26 26" fill="none" xmlns="http://www.w3.org/2000/svg">
<mask id="mask0_5_35" style="mask-type:alpha" maskUnits="userSpaceOnUse" x="0" y="0" width="26" height="26">
<rect x="0.144287" y="0.149902" width="24.9091" height="24.9091" fill="#D9D9D9"/>
</mask>
<g mask="url(#mask0_5_35)">
<path d="M4.42558 20.9074V19.1694H7.61706L7.22785 18.858C6.18997 17.9928 5.44187 17.0457 4.98354 16.0165C4.52521 14.9873 4.29605 13.876 4.29605 12.6824C4.29605 10.8142 4.84945 9.14492 5.95624 7.67445C7.06345 6.2044 8.50797 5.20118 10.2898 4.66481V6.45515C9.00948 6.93963 7.98011 7.75271 7.2017 8.89437C6.42329 10.036 6.03408 11.2987 6.03408 12.6824C6.03408 13.6684 6.21571 14.5506 6.57897 15.329C6.94223 16.1074 7.46117 16.7993 8.13579 17.4046L8.73298 17.8461V14.862H10.471V20.9074H4.42558ZM14.908 20.5705V18.754C16.2053 18.2695 17.239 17.4565 18.0091 16.3148C18.7788 15.1731 19.1637 13.9104 19.1637 12.5267C19.1637 11.7139 18.982 10.9008 18.6188 10.0875C18.2555 9.27465 17.7451 8.54814 17.0875 7.90797L16.5171 7.36309V10.3472H14.7784V4.30176H20.8239V6.03979H17.6069L18.0216 6.40346C18.9906 7.32012 19.7129 8.31461 20.1887 9.38695C20.664 10.4597 20.9017 11.5063 20.9017 12.5267C20.9017 14.3949 20.3525 16.0686 19.254 17.5478C18.1559 19.0266 16.7072 20.0341 14.908 20.5705Z" fill="#8B8B8B"/>
</g>
</svg>
