<svg width="30" height="30" viewBox="0 0 30 30" fill="none" xmlns="http://www.w3.org/2000/svg">
<mask id="mask0_19_35" style="mask-type:alpha" maskUnits="userSpaceOnUse" x="0" y="0" width="30" height="30">
<rect width="30" height="30" fill="#D9D9D9"/>
</mask>
<g mask="url(#mask0_19_35)">
<path d="M5.77778 27.5C5.01389 27.5 4.36018 27.2554 3.81667 26.7663C3.27222 26.2763 3 25.6875 3 25V12.5C3 11.8125 3.27222 11.2238 3.81667 10.7337C4.36018 10.2446 5.01389 10 5.77778 10H7.16667V7.5C7.16667 5.77083 7.84398 4.29667 9.19861 3.0775C10.5523 1.85917 12.1898 1.25 14.1111 1.25C16.0324 1.25 17.6704 1.85917 19.025 3.0775C20.3787 4.29667 21.0556 5.77083 21.0556 7.5V10H22.4444C23.2083 10 23.8625 10.2446 24.4069 10.7337C24.9505 11.2238 25.2222 11.8125 25.2222 12.5V25C25.2222 25.6875 24.9505 26.2763 24.4069 26.7663C23.8625 27.2554 23.2083 27.5 22.4444 27.5H5.77778ZM9.94444 10H18.2778V7.5C18.2778 6.45833 17.8727 5.57292 17.0625 4.84375C16.2523 4.11458 15.2685 3.75 14.1111 3.75C12.9537 3.75 11.9699 4.11458 11.1597 4.84375C10.3495 5.57292 9.94444 6.45833 9.94444 7.5V10ZM5.77778 25H22.4444V12.5H5.77778V25ZM14.1111 21.25C14.875 21.25 15.5292 21.0054 16.0736 20.5163C16.6171 20.0263 16.8889 19.4375 16.8889 18.75C16.8889 18.0625 16.6171 17.4737 16.0736 16.9837C15.5292 16.4946 14.875 16.25 14.1111 16.25C13.3472 16.25 12.6935 16.4946 12.15 16.9837C11.6056 17.4737 11.3333 18.0625 11.3333 18.75C11.3333 19.4375 11.6056 20.0263 12.15 20.5163C12.6935 21.0054 13.3472 21.25 14.1111 21.25Z" fill="#8B8B8B"/>
</g>
</svg>
