<svg width="24" height="24" viewBox="0 0 24 24" fill="none" xmlns="http://www.w3.org/2000/svg">
<mask id="mask0_19_38" style="mask-type:alpha" maskUnits="userSpaceOnUse" x="0" y="0" width="24" height="24">
<rect width="24" height="24" fill="#D9D9D9"/>
</mask>
<g mask="url(#mask0_19_38)">
<path d="M16.5556 13.3L14.9445 11.85C15.1112 11.0667 14.8612 10.3333 14.1945 9.65C13.5278 8.96667 12.6667 8.7 11.6112 8.85L10.0001 7.4C10.3149 7.26667 10.6341 7.16667 10.9578 7.1C11.2823 7.03333 11.6297 7 12.0001 7C13.3889 7 14.5697 7.43733 15.5423 8.312C16.5141 9.18733 17.0001 10.25 17.0001 11.5C17.0001 11.8333 16.963 12.146 16.8889 12.438C16.8149 12.7293 16.7038 13.0167 16.5556 13.3ZM20.1112 16.45L18.5001 15.05C19.2038 14.5667 19.8289 14.0373 20.3756 13.462C20.9215 12.8873 21.3889 12.2333 21.7778 11.5C20.8519 9.81667 19.523 8.479 17.7912 7.487C16.0601 6.49567 14.1297 6 12.0001 6C11.463 6 10.9352 6.03333 10.4167 6.1C9.8982 6.16667 9.38894 6.26667 8.88894 6.4L7.16672 4.85C7.92598 4.56667 8.70376 4.354 9.50005 4.212C10.2964 4.07067 11.1297 4 12.0001 4C14.7964 4 17.2871 4.69567 19.4723 6.087C21.6575 7.479 23.2408 9.28333 24.2223 11.5C23.7964 12.4833 23.2364 13.396 22.5423 14.238C21.8475 15.0793 21.0371 15.8167 20.1112 16.45ZM20.6667 22.6L16.0001 18.45C15.3519 18.6333 14.6993 18.771 14.0423 18.863C13.3845 18.9543 12.7038 19 12.0001 19C9.20376 19 6.71302 18.3043 4.52783 16.913C2.34265 15.521 0.759314 13.7167 -0.222168 11.5C0.166721 10.6167 0.657462 9.79567 1.25005 9.037C1.84265 8.279 2.51857 7.6 3.27783 7L0.222276 4.2L1.77783 2.8L22.2223 21.2L20.6667 22.6ZM4.83339 8.4C4.29635 8.83333 3.80561 9.30833 3.36117 9.825C2.91672 10.3417 2.53709 10.9 2.22228 11.5C3.1482 13.1833 4.47672 14.5207 6.20783 15.512C7.93968 16.504 9.87043 17 12.0001 17C12.3704 17 12.7315 16.9793 13.0834 16.938C13.4352 16.896 13.7964 16.85 14.1667 16.8L13.1667 15.85C12.963 15.9 12.7686 15.9373 12.5834 15.962C12.3982 15.9873 12.2038 16 12.0001 16C10.6112 16 9.43043 15.5627 8.45783 14.688C7.48598 13.8127 7.00005 12.75 7.00005 11.5C7.00005 11.3167 7.01376 11.1417 7.04117 10.975C7.06931 10.8083 7.11117 10.6333 7.16672 10.45L4.83339 8.4Z" fill="#5A1C84"/>
</g>
</svg>
