<svg width="30" height="30" viewBox="0 0 30 30" fill="none" xmlns="http://www.w3.org/2000/svg">
<mask id="mask0_19_29" style="mask-type:alpha" maskUnits="userSpaceOnUse" x="0" y="0" width="30" height="30">
<rect width="30" height="30" fill="#D9D9D9"/>
</mask>
<g mask="url(#mask0_19_29)">
<path d="M9.55558 11.25V8.75H20.6667V11.25H9.55558ZM8.16669 28.75C7.40281 28.75 6.7491 28.5054 6.20558 28.0163C5.66114 27.5263 5.38892 26.9375 5.38892 26.25V3.75C5.38892 3.0625 5.66114 2.47375 6.20558 1.98375C6.7491 1.49458 7.40281 1.25 8.16669 1.25H22.0556C22.8195 1.25 23.4736 1.49458 24.0181 1.98375C24.5616 2.47375 24.8334 3.0625 24.8334 3.75V26.25C24.8334 26.9375 24.5616 27.5263 24.0181 28.0163C23.4736 28.5054 22.8195 28.75 22.0556 28.75H8.16669ZM8.16669 22.5H22.0556V7.5H8.16669V22.5ZM8.16669 25V26.25H22.0556V25H8.16669ZM8.16669 5H22.0556V3.75H8.16669V5Z" fill="#8B8B8B"/>
</g>
</svg>
