<svg width="18" height="19" viewBox="0 0 18 19" fill="none" xmlns="http://www.w3.org/2000/svg">
<mask id="mask0_10_21" style="mask-type:alpha" maskUnits="userSpaceOnUse" x="0" y="0" width="18" height="19">
<rect y="0.895325" width="18" height="18" fill="#D9D9D9"/>
</mask>
<g mask="url(#mask0_10_21)">
<path d="M7.50002 15.8954H10.5V15.1454H7.50002V15.8954ZM5.25002 12.8954H12.75V5.39536H5.25002V12.8954ZM5.25002 18.1454C4.83752 18.1454 4.48452 17.9986 4.19102 17.7051C3.89702 17.4111 3.75002 17.0579 3.75002 16.6454V3.14536C3.75002 2.73286 3.89702 2.37961 4.19102 2.08561C4.48452 1.79211 4.83752 1.64536 5.25002 1.64536H12.75C13.1625 1.64536 13.5158 1.79211 13.8098 2.08561C14.1033 2.37961 14.25 2.73286 14.25 3.14536V16.6454C14.25 17.0579 14.1033 17.4111 13.8098 17.7051C13.5158 17.9986 13.1625 18.1454 12.75 18.1454H5.25002ZM5.25002 3.89536H12.75V3.14536H5.25002V3.89536ZM5.25002 14.3954V16.6454H12.75V14.3954H5.25002Z" fill="#787878"/>
</g>
</svg>
