<svg width="18" height="19" viewBox="0 0 18 19" fill="none" xmlns="http://www.w3.org/2000/svg">
<mask id="mask0_10_30" style="mask-type:alpha" maskUnits="userSpaceOnUse" x="0" y="0" width="18" height="19">
<rect y="0.191681" width="18" height="18" fill="#D9D9D9"/>
</mask>
<g mask="url(#mask0_10_30)">
<path d="M3.00002 15.1916C2.58752 15.1916 2.23452 15.0448 1.94102 14.7513C1.64702 14.4573 1.50002 14.1041 1.50002 13.6916V4.69159C1.50002 4.27909 1.64702 3.92609 1.94102 3.63259C2.23452 3.33859 2.58752 3.19159 3.00002 3.19159H15C15.4125 3.19159 15.7658 3.33859 16.0598 3.63259C16.3533 3.92609 16.5 4.27909 16.5 4.69159V13.6916C16.5 14.1041 16.3533 14.4573 16.0598 14.7513C15.7658 15.0448 15.4125 15.1916 15 15.1916H3.00002ZM9.00002 9.94159L3.00002 6.19159V13.6916H15V6.19159L9.00002 9.94159ZM9.00002 8.44159L15 4.69159H3.00002L9.00002 8.44159ZM3.00002 6.19159V4.69159V13.6916V6.19159Z" fill="#787878"/>
</g>
</svg>
