<svg width="30" height="30" viewBox="0 0 30 30" fill="none" xmlns="http://www.w3.org/2000/svg">
<mask id="mask0_2_48" style="mask-type:alpha" maskUnits="userSpaceOnUse" x="0" y="0" width="30" height="30">
<rect width="30" height="30" fill="#D9D9D9"/>
</mask>
<g mask="url(#mask0_2_48)">
<path d="M5 10H25V7.5H5V10ZM2.5 7.5C2.5 6.8125 2.745 6.22417 3.235 5.735C3.72417 5.245 4.3125 5 5 5H25C25.6875 5 26.2763 5.245 26.7663 5.735C27.2554 6.22417 27.5 6.8125 27.5 7.5V15H5V22.5H10.125V25H5C4.3125 25 3.72417 24.7554 3.235 24.2663C2.745 23.7763 2.5 23.1875 2.5 22.5V7.5ZM18.6875 27.5L13.375 22.1875L15.125 20.4375L18.6875 23.9375L25.75 16.875L27.5 18.6875L18.6875 27.5ZM5 7.5V22.5V16.875V20.4063V7.5Z" fill="#5B1D87"/>
</g>
</svg>
