<svg width="30" height="30" viewBox="0 0 30 30" fill="none" xmlns="http://www.w3.org/2000/svg">
<mask id="mask0_4_60" style="mask-type:alpha" maskUnits="userSpaceOnUse" x="0" y="0" width="30" height="30">
<rect width="30" height="30" fill="#D9D9D9"/>
</mask>
<g mask="url(#mask0_4_60)">
<path d="M20 16.875C20.5417 16.875 20.9896 16.6979 21.3438 16.3438C21.6979 15.9896 21.875 15.5417 21.875 15C21.875 14.4583 21.6979 14.0104 21.3438 13.6562C20.9896 13.3021 20.5417 13.125 20 13.125C19.4583 13.125 19.0104 13.3021 18.6562 13.6562C18.3021 14.0104 18.125 14.4583 18.125 15C18.125 15.5417 18.3021 15.9896 18.6562 16.3438C19.0104 16.6979 19.4583 16.875 20 16.875ZM6.25 26.25C5.5625 26.25 4.97375 26.0054 4.48375 25.5163C3.99458 25.0263 3.75 24.4375 3.75 23.75V6.25C3.75 5.5625 3.99458 4.97375 4.48375 4.48375C4.97375 3.99458 5.5625 3.75 6.25 3.75H23.75C24.4375 3.75 25.0263 3.99458 25.5163 4.48375C26.0054 4.97375 26.25 5.5625 26.25 6.25V9.375H23.75V6.25H6.25V23.75H23.75V20.625H26.25V23.75C26.25 24.4375 26.0054 25.0263 25.5163 25.5163C25.0263 26.0054 24.4375 26.25 23.75 26.25H6.25ZM16.25 21.25C15.5625 21.25 14.9742 21.0054 14.485 20.5163C13.995 20.0263 13.75 19.4375 13.75 18.75V11.25C13.75 10.5625 13.995 9.97375 14.485 9.48375C14.9742 8.99458 15.5625 8.75 16.25 8.75H25C25.6875 8.75 26.2763 8.99458 26.7663 9.48375C27.2554 9.97375 27.5 10.5625 27.5 11.25V18.75C27.5 19.4375 27.2554 20.0263 26.7663 20.5163C26.2763 21.0054 25.6875 21.25 25 21.25H16.25ZM25 18.75V11.25H16.25V18.75H25Z" fill="#5B1D87"/>
</g>
</svg>
