<?xml version="1.0" encoding="utf-8"?>
<!-- Generator: Adobe Illustrator 23.0.1, SVG Export Plug-In . SVG Version: 6.00 Build 0)  -->
<svg version="1.1" id="Layer_1" xmlns="http://www.w3.org/2000/svg" xmlns:xlink="http://www.w3.org/1999/xlink" x="0px" y="0px"
	 viewBox="0 0 30 30" style="enable-background:new 0 0 30 30;" xml:space="preserve">
<style type="text/css">
	.st0{fill:#D9D9D9;filter:url(#Adobe_OpacityMaskFilter);}
	.st1{mask:url(#mask0_7_386_1_);}
	.st2{fill:#FFFFFF;}
</style>
<defs>
	<filter id="Adobe_OpacityMaskFilter" filterUnits="userSpaceOnUse" x="2.5" y="5" width="25" height="20">
		<feColorMatrix  type="matrix" values="1 0 0 0 0  0 1 0 0 0  0 0 1 0 0  0 0 0 1 0"/>
	</filter>
</defs>
<mask maskUnits="userSpaceOnUse" x="2.5" y="5" width="25" height="20" id="mask0_7_386_1_">
	<rect class="st0" width="30" height="30"/>
</mask>
<g class="st1">
	<path class="st2" d="M27.5,7.5v15c0,0.7-0.2,1.3-0.7,1.8C26.3,24.8,25.7,25,25,25H5c-0.7,0-1.3-0.2-1.8-0.7
		c-0.5-0.5-0.7-1.1-0.7-1.8v-15c0-0.7,0.2-1.3,0.7-1.8C3.7,5.2,4.3,5,5,5h20c0.7,0,1.3,0.2,1.8,0.7C27.3,6.2,27.5,6.8,27.5,7.5z
		 M5,10h20V7.5H5V10z M5,15v7.5h20V15H5z"/>
</g>
</svg>
